<?xml version="1.0" encoding="iso-8859-1"?>
<!-- Generator: Adobe Illustrator 19.0.0, SVG Export Plug-In . SVG Version: 6.00 Build 0)  -->
<svg version="1.1" id="Capa_1" xmlns="http://www.w3.org/2000/svg" xmlns:xlink="http://www.w3.org/1999/xlink" x="0px" y="0px"
	 viewBox="0 0 60 60" style="enable-background:new 0 0 60 60;" xml:space="preserve">
<g>
	<g>
		<path d="M59,0H1C0.4,0,0,0.4,0,1v18v18v10v12c0,0.6,0.4,1,1,1h6c0.6,0,1-0.4,1-1V48h44v11c0,0.6,0.4,1,1,1h6c0.6,0,1-0.4,1-1V47
			V37V19V1C60,0.4,59.6,0,59,0z M7,46H2v-8h56v8h-5H7z M2,20h56v16H2V20z M2,18v-8h56v8H2z M58,2v6H2V2H58z M6,58H2V48h4V58z M58,58
			h-4V48h4V58z"/>
		<rect x="4" y="4" width="4" height="2"/>
		<rect x="10" y="4" width="4" height="2"/>
		<rect x="54" y="4" width="2" height="2"/>
		<rect x="50" y="4" width="2" height="2"/>
		<path d="M41,23h-2c-1.2,0-2,0.8-2,2v2c0,1.2,0.8,2,2,2h2v2h-2v-1h-2v1c0,1.2,0.8,2,2,2h2c1.2,0,2-0.8,2-2v-2c0-1.2-0.8-2-2-2h-2
			v-2h2v1h2v-1C43,23.8,42.2,23,41,23z"/>
		<path d="M32,23h-4c-0.6,0-1,0.4-1,1v8c0,0.6,0.4,1,1,1h4c1.2,0,2-0.8,2-2v-6C34,23.8,33.2,23,32,23z M32,31h-3v-6h3V31z"/>
		<path d="M23,23h-5c-0.6,0-1,0.4-1,1v9h2v-3h3v3h2v-9C24,23.4,23.6,23,23,23z M19,28v-3h3v3H19z"/>
		<rect x="46" y="27" width="2" height="2"/>
		<rect x="37" y="13" width="2" height="2"/>
		<rect x="41" y="13" width="2" height="2"/>
		<rect x="45" y="13" width="2" height="2"/>
		<rect x="49" y="13" width="2" height="2"/>
		<rect x="53" y="13" width="2" height="2"/>
		<rect x="5" y="13" width="2" height="2"/>
		<rect x="9" y="13" width="2" height="2"/>
		<rect x="13" y="13" width="2" height="2"/>
		<rect x="17" y="13" width="2" height="2"/>
		<rect x="21" y="13" width="2" height="2"/>
		<rect x="25" y="13" width="10" height="2"/>
		<rect x="37" y="41" width="2" height="2"/>
		<rect x="41" y="41" width="2" height="2"/>
		<rect x="45" y="41" width="2" height="2"/>
		<rect x="49" y="41" width="2" height="2"/>
		<rect x="53" y="41" width="2" height="2"/>
		<rect x="5" y="41" width="2" height="2"/>
		<rect x="9" y="41" width="2" height="2"/>
		<rect x="13" y="41" width="2" height="2"/>
		<rect x="17" y="41" width="2" height="2"/>
		<rect x="21" y="41" width="2" height="2"/>
		<rect x="25" y="41" width="10" height="2"/>
		<rect x="12" y="27" width="2" height="2"/>
	</g>
</g>
<g>
</g>
<g>
</g>
<g>
</g>
<g>
</g>
<g>
</g>
<g>
</g>
<g>
</g>
<g>
</g>
<g>
</g>
<g>
</g>
<g>
</g>
<g>
</g>
<g>
</g>
<g>
</g>
<g>
</g>
</svg>
